name p14_grf_mean_speed_1.4
datacolumns 13
datarows 57
range 0.0000000000 0.5600000000
endheader
time	grf_x_l_mean	grf_x_l_var	grf_y_l_mean	grf_y_l_var	grf_z_l_mean	grf_z_l_var	grf_x_r_mean	grf_x_r_var	grf_y_r_mean	grf_y_r_var	grf_z_r_mean	grf_z_r_var
0.0000000000	147.1558291872	1.0000000000	715.4534179048	1.0000000000	0.0000000000	0.0000000000	10.4288111956	1.0000000000	11.3066336682	1.0000000000	0.0000000000	0.0000000000
0.0100000000	159.1578956034	1.0000000000	704.4692448223	1.0000000000	0.0000000000	0.0000000000	12.4652668946	1.0000000000	47.9039510109	1.0000000000	0.0000000000	0.0000000000
0.0200000000	169.6295282799	1.0000000000	681.2379550506	1.0000000000	0.0000000000	0.0000000000	9.3905664668	1.0000000000	107.6130430905	1.0000000000	0.0000000000	0.0000000000
0.0300000000	177.0299985940	1.0000000000	644.0419159637	1.0000000000	0.0000000000	0.0000000000	-4.0011136238	1.0000000000	188.4317704293	1.0000000000	0.0000000000	0.0000000000
0.0400000000	179.1153151469	1.0000000000	591.8426953986	1.0000000000	0.0000000000	0.0000000000	-28.6556835968	1.0000000000	283.0730977922	1.0000000000	0.0000000000	0.0000000000
0.0500000000	174.3026629368	1.0000000000	525.3550291542	1.0000000000	0.0000000000	0.0000000000	-56.9249607215	1.0000000000	379.0148064201	1.0000000000	0.0000000000	0.0000000000
0.0600000000	162.3100212124	1.0000000000	446.8683900327	1.0000000000	0.0000000000	0.0000000000	-82.3438796738	1.0000000000	460.0974145629	1.0000000000	0.0000000000	0.0000000000
0.0700000000	141.3566148772	1.0000000000	360.1731633409	1.0000000000	0.0000000000	0.0000000000	-102.8209419219	1.0000000000	517.5091394238	1.0000000000	0.0000000000	0.0000000000
0.0800000000	113.4135086195	1.0000000000	272.0474343284	1.0000000000	0.0000000000	0.0000000000	-117.4754143799	1.0000000000	554.2208803653	1.0000000000	0.0000000000	0.0000000000
0.0900000000	83.4868875369	1.0000000000	190.6982024775	1.0000000000	0.0000000000	0.0000000000	-127.1526907318	1.0000000000	580.4789658441	1.0000000000	0.0000000000	0.0000000000
0.1000000000	54.6622491350	1.0000000000	122.5771265786	1.0000000000	0.0000000000	0.0000000000	-133.5608342853	1.0000000000	604.7107525753	1.0000000000	0.0000000000	0.0000000000
0.1100000000	30.6509303902	1.0000000000	70.2358918287	1.0000000000	0.0000000000	0.0000000000	-137.8970012737	1.0000000000	628.8759004707	1.0000000000	0.0000000000	0.0000000000
0.1200000000	13.6734272322	1.0000000000	33.8206649781	1.0000000000	0.0000000000	0.0000000000	-138.6368192787	1.0000000000	652.4645214358	1.0000000000	0.0000000000	0.0000000000
0.1300000000	3.7593059682	1.0000000000	11.7375472271	1.0000000000	0.0000000000	0.0000000000	-136.4037403588	1.0000000000	674.9812381517	1.0000000000	0.0000000000	0.0000000000
0.1400000000	-1.1675138549	1.0000000000	0.5121834269	1.0000000000	0.0000000000	0.0000000000	-132.3970925579	1.0000000000	694.3858436485	1.0000000000	0.0000000000	0.0000000000
0.1500000000	0.0000000000	1.0000000000	0.0000000000	1.0000000000	0.0000000000	0.0000000000	-125.9068128119	1.0000000000	707.8777084058	1.0000000000	0.0000000000	0.0000000000
0.1600000000	0.0000000000	1.0000000000	0.0000000000	1.0000000000	0.0000000000	0.0000000000	-116.8114986553	1.0000000000	714.1480710137	1.0000000000	0.0000000000	0.0000000000
0.1700000000	0.0000000000	1.0000000000	0.0000000000	1.0000000000	0.0000000000	0.0000000000	-106.8679080845	1.0000000000	713.3646923149	1.0000000000	0.0000000000	0.0000000000
0.1800000000	0.0000000000	1.0000000000	0.0000000000	1.0000000000	0.0000000000	0.0000000000	-96.1952522443	1.0000000000	705.2715691363	1.0000000000	0.0000000000	0.0000000000
0.1900000000	0.0000000000	1.0000000000	0.0000000000	1.0000000000	0.0000000000	0.0000000000	-84.6561120865	1.0000000000	689.8634058754	1.0000000000	0.0000000000	0.0000000000
0.2000000000	1.4266916568	1.0000000000	0.0793446417	1.0000000000	0.0000000000	0.0000000000	-73.4591628241	1.0000000000	668.0851615315	1.0000000000	0.0000000000	0.0000000000
0.2100000000	1.4031452992	1.0000000000	0.6861560159	1.0000000000	0.0000000000	0.0000000000	-63.1823728887	1.0000000000	641.1391411366	1.0000000000	0.0000000000	0.0000000000
0.2200000000	1.8983611856	1.0000000000	0.9548882862	1.0000000000	0.0000000000	0.0000000000	-53.6168517220	1.0000000000	610.4073932431	1.0000000000	0.0000000000	0.0000000000
0.2300000000	2.0613139329	1.0000000000	0.7993858706	1.0000000000	0.0000000000	0.0000000000	-45.3199181934	1.0000000000	577.6155253461	1.0000000000	0.0000000000	0.0000000000
0.2400000000	2.0223701567	1.0000000000	0.5234436063	1.0000000000	0.0000000000	0.0000000000	-38.5727375344	1.0000000000	544.8846816044	1.0000000000	0.0000000000	0.0000000000
0.2500000000	2.1659114567	1.0000000000	0.3290381367	1.0000000000	0.0000000000	0.0000000000	-32.4090928731	1.0000000000	513.7641560119	1.0000000000	0.0000000000	0.0000000000
0.2600000000	2.0193752621	1.0000000000	0.1746541267	1.0000000000	0.0000000000	0.0000000000	-27.0552772019	1.0000000000	485.2998405589	1.0000000000	0.0000000000	0.0000000000
0.2700000000	1.5094177735	1.0000000000	0.0639503065	1.0000000000	0.0000000000	0.0000000000	-22.6121630422	1.0000000000	460.6399316005	1.0000000000	0.0000000000	0.0000000000
0.2800000000	1.7385994040	1.0000000000	0.1200080136	1.0000000000	0.0000000000	0.0000000000	-18.6047071331	1.0000000000	440.6545121627	1.0000000000	0.0000000000	0.0000000000
0.2900000000	2.1968168765	1.0000000000	0.2480544169	1.0000000000	0.0000000000	0.0000000000	-14.6405640239	1.0000000000	425.4609205779	1.0000000000	0.0000000000	0.0000000000
0.3000000000	2.1692480331	1.0000000000	0.2699338353	1.0000000000	0.0000000000	0.0000000000	-10.8155907262	1.0000000000	414.8347231976	1.0000000000	0.0000000000	0.0000000000
0.3100000000	2.0814029354	1.0000000000	0.2665899119	1.0000000000	0.0000000000	0.0000000000	-6.8207256715	1.0000000000	409.2553684399	1.0000000000	0.0000000000	0.0000000000
0.3200000000	1.9831475893	1.0000000000	0.3149939337	1.0000000000	0.0000000000	0.0000000000	-2.5355687958	1.0000000000	409.4034116094	1.0000000000	0.0000000000	0.0000000000
0.3300000000	1.4681379248	1.0000000000	0.2825377127	1.0000000000	0.0000000000	0.0000000000	1.8159605336	1.0000000000	414.9778937481	1.0000000000	0.0000000000	0.0000000000
0.3400000000	1.0240660344	1.0000000000	0.0676301985	1.0000000000	0.0000000000	0.0000000000	6.5108090788	1.0000000000	425.1643161940	1.0000000000	0.0000000000	0.0000000000
0.3500000000	0.0000000000	1.0000000000	0.0000000000	1.0000000000	0.0000000000	0.0000000000	11.5114301920	1.0000000000	439.8294477635	1.0000000000	0.0000000000	0.0000000000
0.3600000000	0.0000000000	1.0000000000	0.0000000000	1.0000000000	0.0000000000	0.0000000000	16.5532872684	1.0000000000	459.1011714161	1.0000000000	0.0000000000	0.0000000000
0.3700000000	0.0000000000	1.0000000000	0.0000000000	1.0000000000	0.0000000000	0.0000000000	21.9853921335	1.0000000000	481.9409938825	1.0000000000	0.0000000000	0.0000000000
0.3800000000	0.8977669570	1.0000000000	0.1083487960	1.0000000000	0.0000000000	0.0000000000	28.2331931663	1.0000000000	506.7287922479	1.0000000000	0.0000000000	0.0000000000
0.3900000000	0.6201007297	1.0000000000	0.2860595076	1.0000000000	0.0000000000	0.0000000000	35.2735475360	1.0000000000	532.6293376955	1.0000000000	0.0000000000	0.0000000000
0.4000000000	0.3203886628	1.0000000000	0.3697060179	1.0000000000	0.0000000000	0.0000000000	43.5437279104	1.0000000000	559.2750817574	1.0000000000	0.0000000000	0.0000000000
0.4100000000	0.2732409234	1.0000000000	0.1459892338	1.0000000000	0.0000000000	0.0000000000	53.3182584241	1.0000000000	586.1089563487	1.0000000000	0.0000000000	0.0000000000
0.4200000000	0.0000000000	1.0000000000	0.0000000000	1.0000000000	0.0000000000	0.0000000000	64.2287892059	1.0000000000	612.6040514209	1.0000000000	0.0000000000	0.0000000000
0.4300000000	0.0000000000	1.0000000000	0.0000000000	1.0000000000	0.0000000000	0.0000000000	76.0453137877	1.0000000000	638.3046579059	1.0000000000	0.0000000000	0.0000000000
0.4400000000	0.0000000000	1.0000000000	0.0000000000	1.0000000000	0.0000000000	0.0000000000	88.7790309937	1.0000000000	662.4346841520	1.0000000000	0.0000000000	0.0000000000
0.4500000000	0.0000000000	1.0000000000	0.0000000000	1.0000000000	0.0000000000	0.0000000000	101.8269557117	1.0000000000	684.2559747638	1.0000000000	0.0000000000	0.0000000000
0.4600000000	0.0000000000	1.0000000000	0.0000000000	1.0000000000	0.0000000000	0.0000000000	114.7504654012	1.0000000000	703.0831127260	1.0000000000	0.0000000000	0.0000000000
0.4700000000	0.0000000000	1.0000000000	0.0000000000	1.0000000000	0.0000000000	0.0000000000	127.7918279131	1.0000000000	717.3792697439	1.0000000000	0.0000000000	0.0000000000
0.4800000000	0.0000000000	1.0000000000	0.0000000000	1.0000000000	0.0000000000	0.0000000000	140.6537338330	1.0000000000	724.7981435562	1.0000000000	0.0000000000	0.0000000000
0.4900000000	8.5670674307	1.0000000000	13.6152134706	1.0000000000	0.0000000000	0.0000000000	152.6815699841	1.0000000000	723.3049854981	1.0000000000	0.0000000000	0.0000000000
0.5000000000	9.5794950073	1.0000000000	47.0706561050	1.0000000000	0.0000000000	0.0000000000	163.5214659631	1.0000000000	711.5867820624	1.0000000000	0.0000000000	0.0000000000
0.5100000000	6.0756804455	1.0000000000	100.3326608173	1.0000000000	0.0000000000	0.0000000000	172.3597887694	1.0000000000	688.3663904112	1.0000000000	0.0000000000	0.0000000000
0.5200000000	-5.3778829258	1.0000000000	172.0154633442	1.0000000000	0.0000000000	0.0000000000	177.7370716814	1.0000000000	652.3280841452	1.0000000000	0.0000000000	0.0000000000
0.5300000000	-25.4312049781	1.0000000000	255.7133155245	1.0000000000	0.0000000000	0.0000000000	178.4868258897	1.0000000000	602.9859134967	1.0000000000	0.0000000000	0.0000000000
0.5400000000	-49.8333728402	1.0000000000	340.9874165825	1.0000000000	0.0000000000	0.0000000000	173.7970325122	1.0000000000	541.3041373054	1.0000000000	0.0000000000	0.0000000000
0.5500000000	-73.2857539737	1.0000000000	415.9741093893	1.0000000000	0.0000000000	0.0000000000	162.9361176883	1.0000000000	469.4104742914	1.0000000000	0.0000000000	0.0000000000
0.5600000000	-93.1018023629	1.0000000000	473.4800707251	1.0000000000	0.0000000000	0.0000000000	145.4263268386	1.0000000000	390.2852754611	1.0000000000	0.0000000000	0.0000000000
